<svg width="153" height="50" viewBox="0 0 153 50" fill="none" xmlns="http://www.w3.org/2000/svg">
<path d="M0.18 25.216L0.648 24.172C2.736 24.196 3.972 23.704 4.356 22.696C4.524 22.216 4.692 21.316 4.86 19.996C5.028 18.676 5.184 16.948 5.328 14.812C5.496 12.388 5.604 10.3 5.652 8.548C5.724 6.796 5.76 5.404 5.76 4.372C5.76 3.412 5.664 2.728 5.472 2.32C5.28 1.912 4.716 1.708 3.78 1.708C3.348 1.708 2.856 1.78 2.304 1.924L2.88 0.844C3.576 0.939999 5.196 1.048 7.74 1.168C8.076 1.168 8.58 1.144 9.252 1.096C9.924 1.048 10.632 0.999999 11.376 0.951998C12.144 0.903999 12.804 0.879999 13.356 0.879999C15.444 0.879999 17.1 1.276 18.324 2.068C19.572 2.836 20.196 4.216 20.196 6.208C20.196 7.888 19.752 9.352 18.864 10.6C18 11.848 16.86 12.82 15.444 13.516C14.052 14.188 12.552 14.524 10.944 14.524C10.44 14.524 9.912 14.488 9.36 14.416L9.936 13.516C11.28 13.564 12.504 13.336 13.608 12.832C14.736 12.304 15.636 11.548 16.308 10.564C17.004 9.58 17.352 8.428 17.352 7.108C17.352 6.052 17.1 5.164 16.596 4.444C16.116 3.724 15.468 3.184 14.652 2.824C13.836 2.44 12.96 2.248 12.024 2.248C11.448 2.248 10.872 2.32 10.296 2.464C9.984 2.512 9.744 2.62 9.576 2.788C9.408 2.956 9.288 3.232 9.216 3.616C9.144 4.024 9.06 4.624 8.964 5.416C8.868 6.208 8.784 7.06 8.712 7.972C8.64 8.86 8.568 9.7 8.496 10.492C8.4 11.812 8.304 13.156 8.208 14.524C8.112 15.868 8.028 17.128 7.956 18.304C7.908 19.48 7.884 20.488 7.884 21.328C7.884 21.784 7.896 22.18 7.92 22.516C7.944 22.852 7.98 23.104 8.028 23.272C8.1 23.416 8.328 23.56 8.712 23.704C9.096 23.824 9.528 23.92 10.008 23.992C10.512 24.064 10.98 24.112 11.412 24.136C11.868 24.16 12.204 24.16 12.42 24.136L11.88 25.18C11.28 25.132 10.776 25.084 10.368 25.036C9.96 25.012 9.576 24.988 9.216 24.964C8.88 24.916 8.484 24.892 8.028 24.892C7.572 24.868 6.984 24.856 6.264 24.856C5.76 24.856 5.1 24.88 4.284 24.928C3.492 24.976 2.712 25.024 1.944 25.072C1.176 25.144 0.588 25.192 0.18 25.216ZM27.6562 25.432C25.1362 25.432 23.3962 24.832 22.4362 23.632C21.5002 22.432 21.0322 20.656 21.0322 18.304C21.0322 17.032 21.1522 15.748 21.3922 14.452C21.6562 13.156 22.0762 12.028 22.6522 11.068C24.0202 8.644 26.5642 7.432 30.2842 7.432C32.4442 7.432 34.0402 7.948 35.0722 8.98C36.0562 9.964 36.4762 11.296 36.3322 12.976C36.2362 13.12 36.0922 13.312 35.9002 13.552C35.7082 13.768 35.4682 14.044 35.1802 14.38C34.8682 14.788 34.5922 15.112 34.3522 15.352C34.1362 15.568 33.9682 15.664 33.8482 15.64C33.5842 15.616 33.2962 15.604 32.9842 15.604C32.6962 15.58 32.3962 15.568 32.0842 15.568C31.5322 15.568 31.0282 15.58 30.5722 15.604C30.1162 15.604 29.6482 15.604 29.1682 15.604C28.6642 15.604 28.0642 15.616 27.3682 15.64C26.6722 15.664 26.0242 15.7 25.4242 15.748C24.8242 15.772 24.4042 15.796 24.1642 15.82C24.0922 16.78 24.0562 17.644 24.0562 18.412C24.0562 20.26 24.3802 21.652 25.0282 22.588C25.7002 23.524 26.9482 23.992 28.7722 23.992C31.9402 23.992 33.9202 22.54 34.7122 19.636C34.7362 19.516 34.7482 19.408 34.7482 19.312C34.7482 19.216 34.7602 19.144 34.7842 19.096L35.8642 18.592C35.8402 18.808 35.7922 19.132 35.7202 19.564C35.6722 19.996 35.6122 20.572 35.5402 21.292C35.5402 21.532 35.5402 21.796 35.5402 22.084C35.5402 22.372 35.5282 22.696 35.5042 23.056C35.4322 23.368 35.2402 23.644 34.9282 23.884C34.3762 24.412 33.4762 24.796 32.2282 25.036C31.0042 25.3 29.4802 25.432 27.6562 25.432ZM26.7562 14.2C27.0202 14.2 27.3082 14.2 27.6202 14.2C27.9562 14.2 28.3042 14.188 28.6642 14.164C29.6722 14.14 30.5362 14.104 31.2562 14.056C32.0002 14.008 32.6002 13.96 33.0562 13.912C33.4402 13.84 33.6682 13.492 33.7402 12.868C33.7402 11.572 33.3922 10.576 32.6962 9.88C32.0002 9.16 31.0042 8.8 29.7082 8.8C27.1882 8.8 25.5442 9.952 24.7762 12.256C24.6802 12.592 24.5962 12.892 24.5242 13.156C24.4762 13.42 24.4282 13.72 24.3802 14.056C24.6202 14.104 24.9322 14.14 25.3162 14.164C25.7242 14.188 26.2042 14.2 26.7562 14.2ZM37.8993 25.288L38.5113 24.136C38.5833 24.16 38.6553 24.172 38.7273 24.172C38.8233 24.172 38.9193 24.172 39.0153 24.172C39.6393 24.172 40.2753 24.028 40.9233 23.74C41.5713 23.452 41.9913 23.02 42.1833 22.444C42.2793 22.18 42.3633 21.712 42.4353 21.04C42.5313 20.344 42.6153 19.552 42.6873 18.664C42.7833 17.752 42.8673 16.84 42.9393 15.928C43.0113 14.992 43.0593 14.14 43.0833 13.372C43.1313 12.604 43.1553 12.016 43.1553 11.608C43.1553 10.696 43.1073 10.024 43.0113 9.592C42.9153 9.136 42.6633 8.836 42.2553 8.692C41.8713 8.548 41.2353 8.476 40.3473 8.476C40.0593 8.476 39.8073 8.488 39.5913 8.512C39.3753 8.536 39.1713 8.584 38.9793 8.656L39.5913 7.576C39.6633 7.6 40.0593 7.636 40.7793 7.684C41.5233 7.708 42.4473 7.72 43.5513 7.72C44.0553 7.72 44.5113 7.708 44.9193 7.684C45.3273 7.636 45.5913 7.612 45.7113 7.612C46.0713 7.612 46.2513 7.792 46.2513 8.152C46.2513 8.224 46.2033 8.5 46.1073 8.98C46.0353 9.46 45.9393 9.952 45.8193 10.456C46.0113 10.264 46.2753 10.036 46.6113 9.772C46.9713 9.484 47.3433 9.184 47.7273 8.872C48.8793 8.008 50.1033 7.576 51.3993 7.576C52.6233 7.576 53.5113 7.852 54.0633 8.404C54.6393 8.932 54.9273 9.736 54.9273 10.816C54.9273 11.08 54.8073 11.356 54.5673 11.644C54.3513 11.932 54.0993 12.196 53.8113 12.436C53.5233 12.676 53.2833 12.856 53.0913 12.976L52.5513 12.796C52.5753 12.7 52.5873 12.604 52.5873 12.508C52.5873 12.412 52.5873 12.316 52.5873 12.22C52.5873 11.812 52.5153 11.38 52.3713 10.924C52.2513 10.468 52.0233 10.084 51.6873 9.772C51.3513 9.46 50.8713 9.304 50.2473 9.304C49.6473 9.304 48.9753 9.544 48.2313 10.024C47.4873 10.48 46.8633 11.056 46.3593 11.752C45.9993 12.232 45.7593 12.676 45.6393 13.084C45.5193 13.468 45.4473 13.924 45.4233 14.452C45.4233 14.956 45.3993 15.628 45.3513 16.468C45.3273 17.212 45.3033 17.98 45.2793 18.772C45.2553 19.564 45.2433 20.308 45.2433 21.004C45.2433 21.316 45.2433 21.604 45.2433 21.868C45.2433 22.132 45.2553 22.384 45.2793 22.624C45.3273 23.248 45.6513 23.68 46.2513 23.92C46.8753 24.136 47.5593 24.244 48.3033 24.244C48.8073 24.244 49.2873 24.208 49.7433 24.136L49.0953 25.216C48.4953 25.144 47.7393 25.084 46.8273 25.036C45.9153 24.988 44.8353 24.964 43.5873 24.964C42.3393 24.964 41.2353 24.988 40.2753 25.036C39.3153 25.108 38.5233 25.192 37.8993 25.288ZM63.1991 25.432C60.6791 25.432 58.9391 24.832 57.9791 23.632C57.0431 22.432 56.5751 20.656 56.5751 18.304C56.5751 17.032 56.6951 15.748 56.9351 14.452C57.1991 13.156 57.6191 12.028 58.1951 11.068C59.5631 8.644 62.1071 7.432 65.8271 7.432C67.9871 7.432 69.5831 7.948 70.6151 8.98C71.5991 9.964 72.0191 11.296 71.8751 12.976C71.7791 13.12 71.6351 13.312 71.4431 13.552C71.2511 13.768 71.0111 14.044 70.7231 14.38C70.4111 14.788 70.1351 15.112 69.8951 15.352C69.6791 15.568 69.5111 15.664 69.3911 15.64C69.1271 15.616 68.8391 15.604 68.5271 15.604C68.2391 15.58 67.9391 15.568 67.6271 15.568C67.0751 15.568 66.5711 15.58 66.1151 15.604C65.6591 15.604 65.1911 15.604 64.7111 15.604C64.2071 15.604 63.6071 15.616 62.9111 15.64C62.2151 15.664 61.5671 15.7 60.9671 15.748C60.3671 15.772 59.9471 15.796 59.7071 15.82C59.6351 16.78 59.5991 17.644 59.5991 18.412C59.5991 20.26 59.9231 21.652 60.5711 22.588C61.2431 23.524 62.4911 23.992 64.3151 23.992C67.4831 23.992 69.4631 22.54 70.2551 19.636C70.2791 19.516 70.2911 19.408 70.2911 19.312C70.2911 19.216 70.3031 19.144 70.3271 19.096L71.4071 18.592C71.3831 18.808 71.3351 19.132 71.2631 19.564C71.2151 19.996 71.1551 20.572 71.0831 21.292C71.0831 21.532 71.0831 21.796 71.0831 22.084C71.0831 22.372 71.0711 22.696 71.0471 23.056C70.9751 23.368 70.7831 23.644 70.4711 23.884C69.9191 24.412 69.0191 24.796 67.7711 25.036C66.5471 25.3 65.0231 25.432 63.1991 25.432ZM62.2991 14.2C62.5631 14.2 62.8511 14.2 63.1631 14.2C63.4991 14.2 63.8471 14.188 64.2071 14.164C65.2151 14.14 66.0791 14.104 66.7991 14.056C67.5431 14.008 68.1431 13.96 68.5991 13.912C68.9831 13.84 69.2111 13.492 69.2831 12.868C69.2831 11.572 68.9351 10.576 68.2391 9.88C67.5431 9.16 66.5471 8.8 65.2511 8.8C62.7311 8.8 61.0871 9.952 60.3191 12.256C60.2231 12.592 60.1391 12.892 60.0671 13.156C60.0191 13.42 59.9711 13.72 59.9231 14.056C60.1631 14.104 60.4751 14.14 60.8591 14.164C61.2671 14.188 61.7471 14.2 62.2991 14.2ZM81.9023 25.432C79.3823 25.432 77.6423 24.832 76.6823 23.632C75.7463 22.432 75.2783 20.656 75.2783 18.304C75.2783 17.032 75.3983 15.748 75.6383 14.452C75.9023 13.156 76.3223 12.028 76.8983 11.068C78.2663 8.644 80.8103 7.432 84.5303 7.432C86.6903 7.432 88.2863 7.948 89.3183 8.98C90.3023 9.964 90.7223 11.296 90.5783 12.976C90.4823 13.12 90.3383 13.312 90.1463 13.552C89.9543 13.768 89.7143 14.044 89.4263 14.38C89.1143 14.788 88.8383 15.112 88.5983 15.352C88.3823 15.568 88.2143 15.664 88.0943 15.64C87.8303 15.616 87.5423 15.604 87.2303 15.604C86.9423 15.58 86.6423 15.568 86.3303 15.568C85.7783 15.568 85.2743 15.58 84.8183 15.604C84.3623 15.604 83.8943 15.604 83.4143 15.604C82.9103 15.604 82.3103 15.616 81.6143 15.64C80.9183 15.664 80.2703 15.7 79.6703 15.748C79.0703 15.772 78.6503 15.796 78.4103 15.82C78.3383 16.78 78.3023 17.644 78.3023 18.412C78.3023 20.26 78.6263 21.652 79.2743 22.588C79.9463 23.524 81.1943 23.992 83.0183 23.992C86.1863 23.992 88.1663 22.54 88.9583 19.636C88.9823 19.516 88.9943 19.408 88.9943 19.312C88.9943 19.216 89.0063 19.144 89.0303 19.096L90.1103 18.592C90.0863 18.808 90.0383 19.132 89.9663 19.564C89.9183 19.996 89.8583 20.572 89.7863 21.292C89.7863 21.532 89.7863 21.796 89.7863 22.084C89.7863 22.372 89.7743 22.696 89.7503 23.056C89.6783 23.368 89.4863 23.644 89.1743 23.884C88.6223 24.412 87.7223 24.796 86.4743 25.036C85.2503 25.3 83.7263 25.432 81.9023 25.432ZM81.0023 14.2C81.2663 14.2 81.5543 14.2 81.8663 14.2C82.2023 14.2 82.5503 14.188 82.9102 14.164C83.9183 14.14 84.7823 14.104 85.5023 14.056C86.2463 14.008 86.8463 13.96 87.3023 13.912C87.6863 13.84 87.9143 13.492 87.9863 12.868C87.9863 11.572 87.6383 10.576 86.9423 9.88C86.2463 9.16 85.2503 8.8 83.9543 8.8C81.4343 8.8 79.7903 9.952 79.0223 12.256C78.9263 12.592 78.8423 12.892 78.7703 13.156C78.7223 13.42 78.6743 13.72 78.6263 14.056C78.8663 14.104 79.1783 14.14 79.5623 14.164C79.9703 14.188 80.4503 14.2 81.0023 14.2ZM5.14 45H0.7V43.8H1.76V32.2H0.7V31H4.9C5.34 31 5.82 31.0733 6.34 31.22C6.87333 31.3533 7.36667 31.5667 7.82 31.86C8.28667 32.1667 8.67333 32.5533 8.98 33.02C9.28667 33.4867 9.44 34.06 9.44 34.74C9.44 35.9133 9.07333 36.8533 8.34 37.56C7.62 38.2533 6.57333 38.6 5.2 38.6H3.02V43.8H5.14V45ZM3.02 32.2V37.38H4.92C5.54667 37.38 6.06667 37.2933 6.48 37.12C6.90667 36.9467 7.24667 36.7333 7.5 36.48C7.74 36.2267 7.91333 35.9467 8.02 35.64C8.12667 35.32 8.18 35.02 8.18 34.74C8.18 34.3933 8.09333 34.0733 7.92 33.78C7.76 33.4733 7.53333 33.2 7.24 32.96C6.94667 32.7333 6.6 32.5533 6.2 32.42C5.81333 32.2733 5.39333 32.2 4.94 32.2H3.02ZM14.9967 45H10.8367V43.8H12.3767V38.7H10.9967V37.5H13.4567L13.5167 38.54C13.5434 38.82 13.5501 38.9733 13.5367 39C13.5367 39.0133 13.5501 39.16 13.5767 39.44C13.7367 39.1067 13.9367 38.8133 14.1767 38.56C14.4167 38.2933 14.6767 38.0733 14.9567 37.9C15.2367 37.7133 15.5101 37.5733 15.7767 37.48C16.0567 37.3867 16.3234 37.34 16.5767 37.34L16.4967 38.58C16.1367 38.58 15.7967 38.6333 15.4767 38.74C15.1567 38.8333 14.8767 38.9733 14.6367 39.16C14.3301 39.3867 14.0834 39.6733 13.8967 40.02C13.7234 40.3533 13.6367 40.7267 13.6367 41.14V43.8H14.9967V45ZM21.9452 38.56C21.5052 38.56 21.1052 38.6467 20.7452 38.82C20.3985 38.98 20.0985 39.2067 19.8452 39.5C19.6452 39.7533 19.4918 40.0467 19.3852 40.38C19.2785 40.7133 19.2452 41.0667 19.2852 41.44C20.0452 41.1467 20.7985 40.8533 21.5452 40.56C22.3052 40.2667 23.0652 39.98 23.8252 39.7C23.6118 39.3533 23.3452 39.08 23.0252 38.88C22.7052 38.6667 22.3452 38.56 21.9452 38.56ZM24.5252 44.1C24.1918 44.4333 23.8052 44.6933 23.3652 44.88C22.9385 45.0667 22.4652 45.16 21.9452 45.16C21.3985 45.16 20.8785 45.06 20.3852 44.86C19.9052 44.6467 19.4918 44.3667 19.1452 44.02C18.7852 43.66 18.4985 43.2467 18.2852 42.78C18.0852 42.3 17.9852 41.7867 17.9852 41.24C17.9852 40.7067 18.0852 40.2 18.2852 39.72C18.4985 39.24 18.7852 38.82 19.1452 38.46C19.4918 38.1133 19.9052 37.84 20.3852 37.64C20.8785 37.4267 21.3985 37.32 21.9452 37.32C22.3585 37.32 22.7518 37.4 23.1252 37.56C23.4985 37.72 23.8385 37.9333 24.1452 38.2C24.4385 38.48 24.6918 38.8067 24.9052 39.18C25.1318 39.5533 25.3052 39.96 25.4252 40.4C24.4518 40.7733 23.4852 41.1467 22.5252 41.52C21.5652 41.88 20.5985 42.2467 19.6252 42.62C19.8518 43.02 20.1652 43.34 20.5652 43.58C20.9652 43.82 21.4252 43.94 21.9452 43.94C22.3052 43.94 22.6385 43.88 22.9452 43.76C23.2518 43.6267 23.5185 43.44 23.7452 43.2L24.5252 44.1ZM31.0709 45H26.9109V43.8H28.4509V38.7H27.0709V37.5H29.5309L29.5509 37.94C29.5643 38.22 29.5776 38.4733 29.5909 38.7C29.6043 38.9133 29.6243 39.16 29.6509 39.44C29.9309 38.8 30.3509 38.2933 30.9109 37.92C31.4843 37.5467 32.1509 37.3533 32.9109 37.34C33.6176 37.34 34.1909 37.5267 34.6309 37.9C35.0709 38.26 35.3309 38.74 35.4109 39.34C35.6909 38.7267 36.1109 38.2467 36.6709 37.9C37.2443 37.54 37.8976 37.3533 38.6309 37.34C39.3909 37.34 39.9909 37.5467 40.4309 37.96C40.8709 38.3733 41.1043 38.9133 41.1309 39.58V43.8H42.5109V45H38.3509V43.8H39.8709V40.08C39.8443 39.68 39.6976 39.34 39.4309 39.06C39.1776 38.7667 38.7909 38.6067 38.2709 38.58C37.8976 38.58 37.5376 38.6467 37.1909 38.78C36.8576 38.9 36.5643 39.0733 36.3109 39.3C36.0443 39.5267 35.8309 39.7933 35.6709 40.1C35.5109 40.4067 35.4309 40.74 35.4309 41.1V43.8H36.7909V45H32.6309V43.8H34.1709V40.08C34.1443 39.68 33.9976 39.34 33.7309 39.06C33.4776 38.7667 33.0843 38.6067 32.5509 38.58C32.1643 38.58 31.7976 38.6467 31.4509 38.78C31.1176 38.9 30.8243 39.0733 30.5709 39.3C30.3043 39.5267 30.0909 39.8 29.9309 40.12C29.7843 40.4267 29.7109 40.7667 29.7109 41.14V43.8H31.0709V45ZM48.0631 45H43.9031V43.8H45.3631V38.7H43.9031V37.5H46.6231V43.8H48.0631V45ZM46.8631 34.72C46.8631 34.96 46.7765 35.1667 46.6031 35.34C46.4298 35.5 46.2365 35.58 46.0231 35.58C45.8098 35.58 45.6098 35.5 45.4231 35.34C45.2498 35.1667 45.1631 34.96 45.1631 34.72C45.1631 34.4667 45.2498 34.26 45.4231 34.1C45.6098 33.9267 45.8098 33.84 46.0231 33.84C46.2365 33.84 46.4298 33.9267 46.6031 34.1C46.7765 34.26 46.8631 34.4667 46.8631 34.72ZM56.6495 43.06C56.3829 43.7 55.9495 44.2133 55.3495 44.6C54.7629 44.9733 54.1029 45.16 53.3695 45.16C52.6095 45.16 52.0095 44.9533 51.5695 44.54C51.1295 44.1267 50.8962 43.5867 50.8695 42.92V38.7H49.4695V37.5H52.1295V42.42C52.1562 42.82 52.2962 43.1667 52.5495 43.46C52.8162 43.74 53.2162 43.8933 53.7495 43.92C54.1229 43.92 54.4762 43.86 54.8095 43.74C55.1562 43.6067 55.4562 43.4267 55.7095 43.2C55.9762 42.9733 56.1895 42.7067 56.3495 42.4C56.5095 42.08 56.5895 41.7333 56.5895 41.36V38.7H55.1895V37.5H57.8495V43.92H59.1695V45H56.6295L56.6095 43.96L56.6495 43.06ZM64.7233 45H60.5633V43.8H62.1033V38.7H60.7233V37.5H63.1833L63.2033 37.94C63.2166 38.22 63.2299 38.4733 63.2433 38.7C63.2566 38.9133 63.2766 39.16 63.3033 39.44C63.5833 38.8 64.0033 38.2933 64.5633 37.92C65.1366 37.5467 65.8033 37.3533 66.5633 37.34C67.2699 37.34 67.8433 37.5267 68.2833 37.9C68.7233 38.26 68.9833 38.74 69.0633 39.34C69.3433 38.7267 69.7633 38.2467 70.3233 37.9C70.8966 37.54 71.5499 37.3533 72.2833 37.34C73.0433 37.34 73.6433 37.5467 74.0833 37.96C74.5233 38.3733 74.7566 38.9133 74.7833 39.58V43.8H76.1633V45H72.0033V43.8H73.5233V40.08C73.4966 39.68 73.3499 39.34 73.0833 39.06C72.8299 38.7667 72.4433 38.6067 71.9233 38.58C71.5499 38.58 71.1899 38.6467 70.8433 38.78C70.5099 38.9 70.2166 39.0733 69.9633 39.3C69.6966 39.5267 69.4833 39.7933 69.3233 40.1C69.1633 40.4067 69.0833 40.74 69.0833 41.1V43.8H70.4433V45H66.2833V43.8H67.8233V40.08C67.7966 39.68 67.6499 39.34 67.3833 39.06C67.1299 38.7667 66.7366 38.6067 66.2033 38.58C65.8166 38.58 65.4499 38.6467 65.1033 38.78C64.7699 38.9 64.4766 39.0733 64.2233 39.3C63.9566 39.5267 63.7433 39.8 63.5833 40.12C63.4366 40.4267 63.3633 40.7667 63.3633 41.14V43.8H64.7233V45ZM87.7116 45H83.5516V43.8H85.1516C86.0982 41.5333 87.0449 39.2933 87.9916 37.08C88.9516 34.8667 89.9049 32.6267 90.8516 30.36C91.7982 32.6267 92.7449 34.8667 93.6916 37.08C94.6516 39.2933 95.6049 41.5333 96.5516 43.8H98.1516V45H93.9916V43.8H95.2716C94.9382 43.04 94.6116 42.28 94.2916 41.52C93.9849 40.76 93.6716 40 93.3516 39.24H88.3516C87.9649 40.16 87.6382 40.92 87.3716 41.52C87.1182 42.12 86.7982 42.88 86.4116 43.8H87.7116V45ZM90.6316 33.78C90.3382 34.4867 90.0382 35.2067 89.7316 35.94C89.4382 36.66 89.1516 37.36 88.8716 38.04H92.8316L91.0316 33.78L90.8316 33.16C90.7916 33.32 90.7516 33.4467 90.7116 33.54C90.6849 33.6333 90.6582 33.7133 90.6316 33.78ZM99.7277 50V48.8H101.068V38.7H99.5477V37.5H102.108C102.108 37.74 102.114 37.9733 102.128 38.2C102.154 38.4133 102.168 38.6333 102.168 38.86C102.354 38.5133 102.688 38.1733 103.168 37.84C103.661 37.5067 104.281 37.34 105.028 37.34C105.588 37.34 106.108 37.4467 106.588 37.66C107.081 37.86 107.508 38.1333 107.868 38.48C108.228 38.84 108.508 39.26 108.708 39.74C108.908 40.2067 109.008 40.7067 109.008 41.24C109.008 41.7867 108.908 42.3 108.708 42.78C108.508 43.2467 108.228 43.66 107.868 44.02C107.508 44.38 107.081 44.6667 106.588 44.88C106.108 45.08 105.588 45.18 105.028 45.18C104.654 45.18 104.308 45.1333 103.988 45.04C103.668 44.9467 103.388 44.8267 103.148 44.68C102.894 44.5467 102.701 44.42 102.568 44.3C102.448 44.1667 102.354 44.0267 102.288 43.88C102.301 43.96 102.308 44.0467 102.308 44.14C102.321 44.22 102.328 44.3 102.328 44.38V48.8H103.888V50H99.7277ZM105.028 38.56C104.628 38.56 104.261 38.6333 103.928 38.78C103.594 38.9133 103.308 39.1067 103.068 39.36C102.828 39.6 102.641 39.8867 102.508 40.22C102.388 40.54 102.328 40.88 102.328 41.24C102.328 41.64 102.394 42.0133 102.528 42.36C102.674 42.6933 102.881 42.98 103.148 43.22C103.388 43.4467 103.668 43.6267 103.988 43.76C104.308 43.88 104.654 43.94 105.028 43.94C105.401 43.94 105.748 43.88 106.068 43.76C106.388 43.6267 106.668 43.4533 106.908 43.24C107.161 43 107.361 42.7067 107.508 42.36C107.668 42.0133 107.748 41.64 107.748 41.24C107.748 40.84 107.668 40.4733 107.508 40.14C107.361 39.7933 107.154 39.4933 106.888 39.24C106.648 39.04 106.368 38.88 106.048 38.76C105.728 38.6267 105.388 38.56 105.028 38.56ZM110.587 50V48.8H111.927V38.7H110.407V37.5H112.967C112.967 37.74 112.974 37.9733 112.987 38.2C113.014 38.4133 113.027 38.6333 113.027 38.86C113.214 38.5133 113.547 38.1733 114.027 37.84C114.52 37.5067 115.14 37.34 115.887 37.34C116.447 37.34 116.967 37.4467 117.447 37.66C117.94 37.86 118.367 38.1333 118.727 38.48C119.087 38.84 119.367 39.26 119.567 39.74C119.767 40.2067 119.867 40.7067 119.867 41.24C119.867 41.7867 119.767 42.3 119.567 42.78C119.367 43.2467 119.087 43.66 118.727 44.02C118.367 44.38 117.94 44.6667 117.447 44.88C116.967 45.08 116.447 45.18 115.887 45.18C115.514 45.18 115.167 45.1333 114.847 45.04C114.527 44.9467 114.247 44.8267 114.007 44.68C113.754 44.5467 113.56 44.42 113.427 44.3C113.307 44.1667 113.214 44.0267 113.147 43.88C113.16 43.96 113.167 44.0467 113.167 44.14C113.18 44.22 113.187 44.3 113.187 44.38V48.8H114.747V50H110.587ZM115.887 38.56C115.487 38.56 115.12 38.6333 114.787 38.78C114.454 38.9133 114.167 39.1067 113.927 39.36C113.687 39.6 113.5 39.8867 113.367 40.22C113.247 40.54 113.187 40.88 113.187 41.24C113.187 41.64 113.254 42.0133 113.387 42.36C113.534 42.6933 113.74 42.98 114.007 43.22C114.247 43.4467 114.527 43.6267 114.847 43.76C115.167 43.88 115.514 43.94 115.887 43.94C116.26 43.94 116.607 43.88 116.927 43.76C117.247 43.6267 117.527 43.4533 117.767 43.24C118.02 43 118.22 42.7067 118.367 42.36C118.527 42.0133 118.607 41.64 118.607 41.24C118.607 40.84 118.527 40.4733 118.367 40.14C118.22 39.7933 118.014 39.4933 117.747 39.24C117.507 39.04 117.227 38.88 116.907 38.76C116.587 38.6267 116.247 38.56 115.887 38.56ZM130.726 45H128.106V44.4C128.106 44.28 128.106 44.1733 128.106 44.08C128.106 43.9867 128.106 43.88 128.106 43.76C128.053 43.8933 127.946 44.04 127.786 44.2C127.64 44.36 127.446 44.5067 127.206 44.64C126.953 44.8 126.66 44.9267 126.326 45.02C126.006 45.1133 125.646 45.16 125.246 45.16C124.686 45.16 124.16 45.06 123.666 44.86C123.186 44.6467 122.773 44.36 122.426 44C122.066 43.6533 121.78 43.2467 121.566 42.78C121.366 42.3 121.266 41.7933 121.266 41.26C121.266 40.7267 121.366 40.22 121.566 39.74C121.78 39.26 122.066 38.8467 122.426 38.5C122.773 38.14 123.186 37.8533 123.666 37.64C124.16 37.4267 124.686 37.32 125.246 37.32C126.006 37.32 126.633 37.48 127.126 37.8C127.62 38.12 127.946 38.4667 128.106 38.84C128.106 38.6267 128.113 38.4067 128.126 38.18C128.153 37.9533 128.173 37.7267 128.186 37.5H129.226V43.8H130.726V45ZM125.246 38.56C124.846 38.56 124.473 38.6333 124.126 38.78C123.78 38.9133 123.493 39.1133 123.266 39.38C123.026 39.62 122.846 39.9 122.726 40.22C122.606 40.5267 122.546 40.8667 122.546 41.24C122.546 41.6533 122.626 42.04 122.786 42.4C122.946 42.7467 123.173 43.04 123.466 43.28C123.693 43.48 123.953 43.64 124.246 43.76C124.553 43.88 124.886 43.94 125.246 43.94C125.62 43.94 125.966 43.8733 126.286 43.74C126.62 43.6067 126.906 43.4267 127.146 43.2C127.4 42.96 127.6 42.6733 127.746 42.34C127.893 41.9933 127.966 41.6267 127.966 41.24C127.966 40.8533 127.893 40.4933 127.746 40.16C127.6 39.8133 127.4 39.5267 127.146 39.3C126.906 39.06 126.62 38.88 126.286 38.76C125.966 38.6267 125.62 38.56 125.246 38.56ZM136.286 45H132.126V43.8H133.666V38.7H132.286V37.5H134.746L134.806 38.54C134.832 38.82 134.839 38.9733 134.826 39C134.826 39.0133 134.839 39.16 134.866 39.44C135.026 39.1067 135.226 38.8133 135.466 38.56C135.706 38.2933 135.966 38.0733 136.246 37.9C136.526 37.7133 136.799 37.5733 137.066 37.48C137.346 37.3867 137.612 37.34 137.866 37.34L137.786 38.58C137.426 38.58 137.086 38.6333 136.766 38.74C136.446 38.8333 136.166 38.9733 135.926 39.16C135.619 39.3867 135.372 39.6733 135.186 40.02C135.012 40.3533 134.926 40.7267 134.926 41.14V43.8H136.286V45ZM143.234 38.56C142.794 38.56 142.394 38.6467 142.034 38.82C141.688 38.98 141.388 39.2067 141.134 39.5C140.934 39.7533 140.781 40.0467 140.674 40.38C140.568 40.7133 140.534 41.0667 140.574 41.44C141.334 41.1467 142.088 40.8533 142.834 40.56C143.594 40.2667 144.354 39.98 145.114 39.7C144.901 39.3533 144.634 39.08 144.314 38.88C143.994 38.6667 143.634 38.56 143.234 38.56ZM145.814 44.1C145.481 44.4333 145.094 44.6933 144.654 44.88C144.228 45.0667 143.754 45.16 143.234 45.16C142.688 45.16 142.168 45.06 141.674 44.86C141.194 44.6467 140.781 44.3667 140.434 44.02C140.074 43.66 139.788 43.2467 139.574 42.78C139.374 42.3 139.274 41.7867 139.274 41.24C139.274 40.7067 139.374 40.2 139.574 39.72C139.788 39.24 140.074 38.82 140.434 38.46C140.781 38.1133 141.194 37.84 141.674 37.64C142.168 37.4267 142.688 37.32 143.234 37.32C143.648 37.32 144.041 37.4 144.414 37.56C144.788 37.72 145.128 37.9333 145.434 38.2C145.728 38.48 145.981 38.8067 146.194 39.18C146.421 39.5533 146.594 39.96 146.714 40.4C145.741 40.7733 144.774 41.1467 143.814 41.52C142.854 41.88 141.888 42.2467 140.914 42.62C141.141 43.02 141.454 43.34 141.854 43.58C142.254 43.82 142.714 43.94 143.234 43.94C143.594 43.94 143.928 43.88 144.234 43.76C144.541 43.6267 144.808 43.44 145.034 43.2L145.814 44.1ZM152.36 45H148.2V43.8H149.7V31.2H148.34V30H150.96V43.8H152.36V45Z" fill="black"/>
</svg>
